<?xml version="1.0" encoding="UTF-8" standalone="no"?>
<svg
   xmlns:dc="http://purl.org/dc/elements/1.1/"
   xmlns:cc="http://creativecommons.org/ns#"
   xmlns:rdf="http://www.w3.org/1999/02/22-rdf-syntax-ns#"
   xmlns:svg="http://www.w3.org/2000/svg"
   xmlns="http://www.w3.org/2000/svg"
   id="svg848"
   version="1.1"
   viewBox="0 0 82.483467 86.89807"
   height="86.898071"
   width="82.483467">
  <metadata
     id="metadata854">
    <rdf:RDF>
      <cc:Work
         rdf:about="">
        <dc:format>image/svg+xml</dc:format>
        <dc:type
           rdf:resource="http://purl.org/dc/dcmitype/StillImage" />
        <dc:title></dc:title>
      </cc:Work>
    </rdf:RDF>
  </metadata>
  <defs
     id="defs852" />
  <g
     transform="translate(3.4852161,1.3940864)"
     style="display:inline"
     id="layer2">
    <rect
       ry="5.8714919"
       y="-1.3940864"
       x="-3.4852161"
       height="86.898071"
       width="82.483467"
       id="rect876"
       style="fill:#ffffff;stroke:none;stroke-width:45.8795" />
  </g>
  <g
     transform="translate(3.4852161,1.3940864)"
     style="display:inline"
     id="layer3">
    <g
       transform="translate(-24.011,-246.14)"
       id="layer1">
      <g
         transform="translate(11.766,598.413)"
         id="g4482">
        <path
           transform="rotate(11,34.473956,-321.40195)"
           d="m 25.056,-320.731 a 59.375,59.375 0 0 1 12.265,0 55.3,55.3 0 0 1 6.844,1.023 c 0,0 -0.339,-2.369 -0.813,-2.715 a 4.34,4.34 0 0 0 -2.914,-0.634 c -1.288,0.173 -7.861,0.921 -10.436,1.039 a 23.631,23.631 0 0 0 -4.947,0.618 c -0.61,0.189 0,0.669 0,0.669"
           id="path26" />
        <path
           transform="matrix(0.951,-0.309,0.309,0.951,101.931,5.05)"
           d="m 56.5,-321.786 c 0,0 5.828,0.693 6.505,0.693 0.677,0 7.454,-0.118 8.878,0 l 0.339,-0.346 c 0,0 -3.659,-0.944 -6.031,-1.657 a 53.677,53.677 0 0 0 -7.86,-1.637 c -1.152,-0.059 -1.694,0.4 -1.83,0.925 -0.136,0.525 -0.407,1.672 0,2.023"
           id="path28" />
        <path
           transform="rotate(74,27.133517,-307.84386)"
           d="m 56.462,-319.964 c 0,0 4.852,1.12 5.416,1.12 0.564,0 6.206,-0.191 7.391,0 l 0.282,-0.56 c 0,0 -3.046,-1.527 -5.021,-2.679 a 27.043,27.043 0 0 0 -6.544,-2.647 c -0.959,-0.1 -1.41,0.649 -1.523,1.5 -0.113,0.851 -0.338,2.7 0,3.271"
           data-name="path28"
           id="path28-2" />
        <path
           transform="translate(3.588,2)"
           d="m 69.561,-309.3 c -1.9,9.405 -12.8,7.46 -15.738,5.484 -2.938,-1.976 -3.872,-6.654 -4.005,-8.912 -0.133,-2.258 2.892,-5.08 8.856,-5.481 5.964,-0.401 10.1,1.409 11.125,2.457 1.025,1.048 0.134,4.616 -0.237,6.452 z m -32.322,5.484 C 34.3,-301.84 23.4,-299.894 21.5,-309.3 c -0.371,-1.835 -1.261,-5.4 -0.237,-6.452 1.024,-1.052 5.162,-2.862 11.125,-2.457 5.963,0.405 8.989,3.226 8.856,5.481 -0.133,2.255 -1.068,6.937 -4.005,8.912 z m 36.472,-13.937 a 26.535,26.535 0 0 0 -15.011,-2.46 45.169,45.169 0 0 0 -11.913,2.689 3.3,3.3 0 0 1 -1.259,0.246 3.305,3.305 0 0 1 -1.259,-0.246 45.162,45.162 0 0 0 -11.913,-2.689 26.535,26.535 0 0 0 -15.008,2.461 0.845,0.845 0 0 0 -0.455,0.938 l 0.611,2.593 a 0.969,0.969 0 0 0 1.124,0.677 l 0.319,-0.055 a 55.542,55.542 0 0 0 1.909,7.147 c 1.678,4.3 6.457,6.132 11.678,5.591 5.221,-0.541 7,-2.31 8.722,-5.587 1.722,-3.277 2.077,-5.484 4.272,-5.539 2.2,0.055 2.551,2.258 4.272,5.539 1.721,3.281 3.5,5.05 8.722,5.587 5.222,0.537 10,-1.287 11.678,-5.591 a 55.554,55.554 0 0 0 1.909,-7.147 l 0.319,0.055 a 0.969,0.969 0 0 0 1.124,-0.677 l 0.611,-2.593 a 0.845,0.845 0 0 0 -0.455,-0.938"
           id="path30" />
        <path
           transform="translate(-1,-2.411)"
           d="m 15.743,-315.309 c 0,0 -2.948,0.3 -2.44,4.03 a 71.587,71.587 0 0 0 3.571,12.293 c 0.495,1.006 3.505,1.029 4.717,0.805 0,0 -3.718,-1.006 -4.174,-2.315 -0.456,-1.309 -5.131,-13.1 -1.675,-13.706 v -1.107"
           id="path32" />
        <path
           transform="translate(65,-1.411)"
           d="m 19.093,-315.309 c 0,0 2.948,0.3 2.44,4.03 a 71.586,71.586 0 0 1 -3.571,12.293 c -0.495,1.006 -3.505,1.029 -4.717,0.805 0,0 3.718,-1.006 4.174,-2.315 0.456,-1.309 5.131,-13.1 1.675,-13.706 v -1.107"
           data-name="path32"
           id="path32-2" />
        <path
           transform="translate(-0.164,3)"
           d="m 46.123,-299.768 c -0.556,0.288 -0.01,1.114 1.235,1.926 1.112,0.721 4.015,1.153 6.424,-1.493 0,0 -3.15,1.694 -5.127,0.677 -1.977,-1.017 -1.791,-1.493 -2.532,-1.109"
           id="path36" />
        <path
           transform="translate(4.433,2)"
           d="m 71.8,-300.737 -0.933,5.031 -0.883,9.217 c 0,0 -17.962,18.031 -24.3,10.681 -6.338,7.35 -25.184,-10.681 -25.184,-10.681 v -12.458 l -2.644,-3.822 c 0,0 2.1,8.6 1.556,13.176 -0.544,4.576 1.523,5.08 3.66,7.217 2.137,2.137 14.939,9.531 15.89,10.054 0.951,0.523 6.72,0.118 6.72,0.118 0,0 5.769,0.409 6.72,-0.118 0.951,-0.527 13.894,-8.452 16.031,-10.585 2.137,-2.133 3.5,-2.333 3.363,-6.686 -0.137,-4.353 1.546,-11.143 1.546,-11.143"
           id="path38" />
        <path
           transform="translate(16.52,17.175)"
           d="m 46.017,-303.638 -1.71,1.7 -0.269,7.353 c 0,0 -7.5,9.211 -10.808,4.927 -3.309,4.284 -10.808,-4.927 -10.808,-4.927 l -0.269,-7.353 -1.71,-1.7 c 0,0 -0.5,5.826 -0.778,8.5 -0.278,2.674 0.64,2.651 1.757,3.9 1.117,1.249 7.8,5.555 8.3,5.86 0.5,0.305 3.51,0.069 3.51,0.069 0,0 3.013,0.238 3.51,-0.069 0.497,-0.307 7.257,-4.927 8.374,-6.17 1.117,-1.243 2.04,-1.227 1.757,-3.9 -0.283,-2.673 -0.853,-8.186 -0.853,-8.186"
           data-name="path38"
           id="path38-2" />
        <path
           transform="translate(4.305,7.438)"
           d="m 42.924,-359.6 c -34.946,2.068 -25.644,32.32 -25.644,32.32 l 0.657,-0.006 c -1.037,-4.139 -6.116,-29.554 25.073,-31.4 33.369,-1.975 33.842,24.013 30.7,30.882 l 0.5,-0.006 c 3.536,-6 4.1,-33.881 -31.287,-31.788"
           id="path40" />
        <path
           transform="translate(-3.453,-1)"
           d="m 51.682,-286.844 c -0.985,-0.2 -1.447,0.625 -0.681,0.937 0.766,0.312 2.639,0.312 5.788,-0.466 3.149,-0.778 6.981,-2.408 7.321,-3.1 0.34,-0.692 -1.617,0.693 -4.682,1.5 -3.065,0.807 -5.874,1.5 -7.747,1.124"
           id="path42" />
        <path
           transform="translate(1)"
           d="m 36.911,-312.335 -2.544,1.727 1.034,-2.384 a 4.79,4.79 0 0 0 -1.034,-0.122 c -1.946,0 -3.524,1.12 -3.524,2.506 0,1.386 1.578,2.509 3.524,2.509 1.946,0 3.523,-1.123 3.523,-2.509 a 2.191,2.191 0 0 0 -0.979,-1.727"
           id="path44" />
        <path
           transform="translate(-1)"
           d="m 66.592,-312.335 -2.544,1.727 1.034,-2.384 a 4.793,4.793 0 0 0 -1.034,-0.122 c -1.946,0 -3.524,1.12 -3.524,2.506 0,1.386 1.576,2.508 3.524,2.508 1.948,0 3.523,-1.123 3.523,-2.509 a 2.19,2.19 0 0 0 -0.979,-1.727"
           id="path46" />
      </g>
    </g>
  </g>
</svg>
