<?xml version="1.0" encoding="UTF-8" standalone="no"?>
<svg
   xmlns:dc="http://purl.org/dc/elements/1.1/"
   xmlns:cc="http://creativecommons.org/ns#"
   xmlns:rdf="http://www.w3.org/1999/02/22-rdf-syntax-ns#"
   xmlns:svg="http://www.w3.org/2000/svg"
   xmlns="http://www.w3.org/2000/svg"
   id="svg848"
   version="1.1"
   viewBox="0 0 74.347 84.22"
   height="84.22"
   width="74.347">
  <metadata
     id="metadata854">
    <rdf:RDF>
      <cc:Work
         rdf:about="">
        <dc:format>image/svg+xml</dc:format>
        <dc:type
           rdf:resource="http://purl.org/dc/dcmitype/StillImage" />
        <dc:title></dc:title>
      </cc:Work>
    </rdf:RDF>
  </metadata>
  <defs
     id="defs852" />
  <g
     style="fill:#ffffff"
     transform="translate(-24.011 -246.14)"
     id="layer1">
    <g
       style="fill:#ffffff"
       transform="translate(11.766 598.413)"
       id="g4482">
      <path
         style="fill:#ffffff"
         transform="translate(-60.693 -12.483) rotate(11)"
         d="M25.056-320.731a59.375,59.375,0,0,1,12.265,0,55.3,55.3,0,0,1,6.844,1.023s-.339-2.369-.813-2.715a4.34,4.34,0,0,0-2.914-.634c-1.288.173-7.861.921-10.436,1.039a23.631,23.631,0,0,0-4.947.618c-.61.189,0,.669,0,.669"
         id="path26" />
      <path
         style="fill:#ffffff"
         transform="matrix(0.951, -0.309, 0.309, 0.951, 101.931, 5.05)"
         d="M56.5-321.786s5.828.693,6.505.693,7.454-.118,8.878,0l.339-.346s-3.659-.944-6.031-1.657a53.677,53.677,0,0,0-7.86-1.637c-1.152-.059-1.694.4-1.83.925s-.407,1.672,0,2.023"
         id="path28" />
      <path
         style="fill:#ffffff"
         transform="translate(-276.264 -249.073) rotate(74)"
         d="M56.462-319.964s4.852,1.12,5.416,1.12,6.206-.191,7.391,0l.282-.56s-3.046-1.527-5.021-2.679a27.043,27.043,0,0,0-6.544-2.647c-.959-.1-1.41.649-1.523,1.5s-.338,2.7,0,3.271"
         data-name="path28"
         id="path28-2" />
      <path
         style="fill:#ffffff"
         transform="translate(3.588 2)"
         d="M69.561-309.3c-1.9,9.405-12.8,7.46-15.738,5.484s-3.872-6.654-4.005-8.912,2.892-5.08,8.856-5.481,10.1,1.409,11.125,2.457.134,4.616-.237,6.452Zm-32.322,5.484C34.3-301.84,23.4-299.894,21.5-309.3c-.371-1.835-1.261-5.4-.237-6.452s5.162-2.862,11.125-2.457,8.989,3.226,8.856,5.481-1.068,6.937-4.005,8.912Zm36.472-13.937A26.535,26.535,0,0,0,58.7-320.213a45.169,45.169,0,0,0-11.913,2.689,3.3,3.3,0,0,1-1.259.246,3.305,3.305,0,0,1-1.259-.246,45.162,45.162,0,0,0-11.913-2.689,26.535,26.535,0,0,0-15.008,2.461.845.845,0,0,0-.455.938l.611,2.593a.969.969,0,0,0,1.124.677l.319-.055a55.542,55.542,0,0,0,1.909,7.147c1.678,4.3,6.457,6.132,11.678,5.591s7-2.31,8.722-5.587,2.077-5.484,4.272-5.539c2.2.055,2.551,2.258,4.272,5.539s3.5,5.05,8.722,5.587,10-1.287,11.678-5.591a55.554,55.554,0,0,0,1.909-7.147l.319.055a.969.969,0,0,0,1.124-.677l.611-2.593a.845.845,0,0,0-.455-.938"
         id="path30" />
      <path
         style="fill:#ffffff"
         transform="translate(-1 -2.411)"
         d="M15.743-315.309s-2.948.3-2.44,4.03a71.587,71.587,0,0,0,3.571,12.293c.495,1.006,3.505,1.029,4.717.805,0,0-3.718-1.006-4.174-2.315s-5.131-13.1-1.675-13.706v-1.107"
         id="path32" />
      <path
         style="fill:#ffffff"
         transform="translate(65 -1.411)"
         d="M19.093-315.309s2.948.3,2.44,4.03a71.586,71.586,0,0,1-3.571,12.293c-.495,1.006-3.505,1.029-4.717.805,0,0,3.718-1.006,4.174-2.315s5.131-13.1,1.675-13.706v-1.107"
         data-name="path32"
         id="path32-2" />
      <path
         style="fill:#ffffff"
         transform="translate(-0.164 3)"
         d="M46.123-299.768c-.556.288-.01,1.114,1.235,1.926,1.112.721,4.015,1.153,6.424-1.493,0,0-3.15,1.694-5.127.677s-1.791-1.493-2.532-1.109"
         id="path36" />
      <path
         style="fill:#ffffff"
         transform="translate(4.433 2)"
         d="M71.8-300.737l-.933,5.031-.883,9.217s-17.962,18.031-24.3,10.681C39.346-268.458,20.5-286.489,20.5-286.489v-12.458l-2.644-3.822s2.1,8.6,1.556,13.176,1.523,5.08,3.66,7.217,14.939,9.531,15.89,10.054,6.72.118,6.72.118,5.769.409,6.72-.118,13.894-8.452,16.031-10.585,3.5-2.333,3.363-6.686,1.546-11.143,1.546-11.143"
         id="path38" />
      <path
         style="fill:#ffffff"
         transform="translate(16.52 17.175)"
         d="M46.017-303.638l-1.71,1.7-.269,7.353s-7.5,9.211-10.808,4.927c-3.309,4.284-10.808-4.927-10.808-4.927l-.269-7.353-1.71-1.7s-.5,5.826-.778,8.5.64,2.651,1.757,3.9,7.8,5.555,8.3,5.86,3.51.069,3.51.069,3.013.238,3.51-.069,7.257-4.927,8.374-6.17,2.04-1.227,1.757-3.9-.853-8.186-.853-8.186"
         data-name="path38"
         id="path38-2" />
      <path
         style="fill:#ffffff"
         transform="translate(4.305 7.438)"
         d="M42.924-359.6C7.978-357.532,17.28-327.28,17.28-327.28l.657-.006c-1.037-4.139-6.116-29.554,25.073-31.4,33.369-1.975,33.842,24.013,30.7,30.882l.5-.006c3.536-6,4.1-33.881-31.287-31.788"
         id="path40" />
      <path
         style="fill:#ffffff"
         transform="translate(-3.453 -1)"
         d="M51.682-286.844c-.985-.2-1.447.625-.681.937s2.639.312,5.788-.466,6.981-2.408,7.321-3.1-1.617.693-4.682,1.5-5.874,1.5-7.747,1.124"
         id="path42" />
      <path
         style="fill:#ffffff"
         transform="translate(1)"
         d="M36.911-312.335l-2.544,1.727,1.034-2.384a4.79,4.79,0,0,0-1.034-.122c-1.946,0-3.524,1.12-3.524,2.506s1.578,2.509,3.524,2.509,3.523-1.123,3.523-2.509a2.191,2.191,0,0,0-.979-1.727"
         id="path44" />
      <path
         style="fill:#ffffff"
         transform="translate(-1)"
         d="M66.592-312.335l-2.544,1.727,1.034-2.384a4.793,4.793,0,0,0-1.034-.122c-1.946,0-3.524,1.12-3.524,2.506S62.1-308.1,64.048-308.1s3.523-1.123,3.523-2.509a2.19,2.19,0,0,0-.979-1.727"
         id="path46" />
    </g>
  </g>
</svg>
